<?xml version="1.0" encoding="UTF-8"?>
<svg id="Main_Design" data-name="Main Design" xmlns="http://www.w3.org/2000/svg" viewBox="0 0 625.97 623.61">
  <path d="m421.18,225.42c1.98-.63,3.04-2.59,2.47-4.59-.58-1.94-2.58-2.98-4.54-2.46-2.03.55-3.18,2.68-2.52,4.52.63,2.01,2.56,3.09,4.59,2.53" style="fill: #795ea7; stroke-width: 0px;"/>
  <path d="m176.02,373.27c1.89-.4,2.87-2.61,2.45-4.47-.67-1.76-2.75-3.06-4.55-2.41-2.04.62-3.11,2.58-2.71,4.55.67,1.77,2.77,2.95,4.81,2.33" style="fill: #795ea7; stroke-width: 0px;"/>
  <path d="m141.07,331.77c1.92-.63,3.1-2.58,2.42-4.29-.38-2.03-2.73-3.12-4.63-2.66-1.95.75-3.12,2.69-2.47,4.53.64,1.94,2.75,3.06,4.68,2.42" style="fill: #795ea7; stroke-width: 0px;"/>
  <path d="m11.74,456.65c2.05-.62,3.11-2.57,2.45-4.47-.42-1.85-2.37-3.12-4.56-2.4-1.88.4-3.08,2.46-2.55,4.33.75,2.02,2.75,3.07,4.65,2.54" style="fill: #795ea7; stroke-width: 0px;"/>
  <path d="m123.56,567.3c1.88-.4,2.83-2.39,2.43-4.36-.74-2.02-2.73-3.17-4.67-2.42-2.02.5-3.09,2.46-2.32,4.37.4,1.97,2.52,3.03,4.56,2.41" style="fill: #795ea7; stroke-width: 0px;"/>
  <path d="m271.19,374.6c.68,1.65,2.72,2.82,4.57,2.29,2.04-.62,3.18-2.68,2.72-4.55-.57-2-2.69-3.05-4.73-2.44-1.88.41-3.08,2.47-2.55,4.7" style="fill: #795ea7; stroke-width: 0px;"/>
  <path d="m38.72,528.68c1.92-.64,3.22-2.56,2.59-4.57-.53-1.87-2.53-2.9-4.56-2.4-2.06.73-3.21,2.56-2.7,4.55.64,1.88,3,2.99,4.67,2.42" style="fill: #795ea7; stroke-width: 0px;"/>
  <path d="m96.39,435.1c.64,1.88,2.78,2.82,4.67,2.42,2.04-.62,2.98-2.6,2.47-4.59-.63-2-2.53-2.91-4.69-2.32-1.9.53-2.98,2.61-2.45,4.48" style="fill: #795ea7; stroke-width: 0px;"/>
  <path d="m396.79,55.82c-3.37.99-5.18,4.5-4.26,7.62.39,1.62,1.59,3.05,3.05,3.77l-22.52,51.27c-1.09-.35-2.46-.46-3.75-.02-3.24.9-5.29,4.43-4.2,7.63.95,3.3,4.45,5.14,7.83,4.14,3.25-.96,5.09-4.34,4.19-7.57-.61-1.77-1.67-3.01-2.99-3.76l22.51-51.27c1.12.48,2.34.44,3.74.07,3.26-1.01,5.22-4.37,4.21-7.69-1.01-3.31-4.57-5.2-7.82-4.19" style="fill: #795ea7; stroke-width: 0px;"/>
  <path d="m53.28,473.67c3.55-.96,5.31-4.24,4.2-7.63-.78-3.22-4.45-5.12-7.89-4.15-3.42.87-5.11,4.4-3.99,7.79.65,3.31,4.36,4.99,7.68,3.99" style="fill: #795ea7; stroke-width: 0px;"/>
  <path d="m79.85,392.1c2.77-.61,4.95-2.03,6.73-4l235.17,140.23c-1.9,3.37-2.51,7.67-1.32,11.67.65,2.24,1.67,4.08,3,5.84l-46,59.49c-1.52-1.08-3.39-1.39-5.32-.75-.94.21-1.77.78-2.47,1.39l-16.51-15.07c2.14-2.27,3.1-5.79,2.02-9.06-.43-1.37-1.28-2.83-2.41-3.96l13.17-13.77c1.01.52,1.97.92,3.06.51,2.08-.5,3.16-2.57,2.53-4.58-.64-1.88-2.61-2.8-4.55-2.41-2.07.74-3.13,2.7-2.54,4.58.24.4.4.9.71,1.19l-13.19,13.88c-2.51-2.08-5.88-2.86-9.29-2-5.19,1.65-8.31,7.19-6.68,12.21,1.53,5.25,7.14,8.19,12.4,6.79,1.55-.58,2.81-1.2,3.93-2.44l16.59,14.96c-1.16,1.47-1.55,3.43-1.02,5.3,1.06,3.38,4.49,5.26,7.85,4.38,3.34-1.12,5.16-4.39,4.3-7.86-.43-1.02-.92-2.05-1.78-2.67l45.87-59.39c3.24,3.03,7.79,4.73,12.37,4.53l5.43,41.05c-.35-.06-.75.12-1,.19-5.35,1.51-8.27,6.97-6.76,12.32,1.55,5.13,7.17,8.07,12.4,6.43,5.26-1.4,8.4-7.06,6.79-12.2-.6-1.77-1.72-3.37-3.02-4.66l14.57-18.41c2.45,1.58,5.5,2.2,8.58,1.17,5.26-1.4,8.31-6.84,6.7-11.98-1.59-5.25-7.14-8.18-12.49-6.68-1.49.59-2.93,1.19-4.08,2.3l-16.55-14.83c3.44-3.83,4.69-9.09,3.17-14.33-.26-1-.73-2.15-1.3-3.07l72.52-31.74c3.69,7.5,12.39,11.53,20.81,9,9.26-2.52,14.61-12.23,11.86-21.35-1.19-3.64-3.49-6.86-6.57-9.03l23.73-34.26,105.04,39.06c-1.06,2.32-1.32,5.25-.51,8,.24.75.58,1.63,1.03,2.18l-70.39,41.6c-2.47-3.26-6.83-5.05-11.09-3.84-5.24,1.64-8.39,6.94-6.66,12.11,1.42,5.57,6.99,8.39,12.36,6.65.57-.14,1.29-.38,1.67-.56l14.78,23.82c-3.51,2.16-5.31,6.73-3.96,10.88,1.62,5.02,7.1,8.05,12.4,6.42,5.3-1.28,8.38-6.95,6.71-12.1-.06-.72-.41-1.13-.63-1.64l19.3-10.97c2.43,3.48,6.85,5.28,11.21,3.85,5.32-1.39,8.39-6.94,6.8-12.2-.93-2.77-3.03-5.01-5.52-6.02l19.95-52.23c2.22.84,4.79,1.02,7.24.12,6.44-1.93,10.21-8.44,8.21-14.82-1.84-6.6-8.63-10.09-15.13-8.18-.96.31-1.67.56-2.45.9l-57.64-91.49c6.21-2.01,9.81-8.56,7.97-14.86-1.95-6.31-8.72-9.92-15.26-8.14-6.25,1.88-9.88,8.3-8.27,14.51l-103.64,37.15c-1.36-2.71-4.5-4.18-7.54-3.37-.65.25-1.22.4-1.84.89l-51.98-55.69c3.41-3.3,5.02-8.15,4.42-12.83l90.4-14.48c.02.3.14.61.14.97,2.08,6.28,8.78,9.93,15.35,7.98,6.38-1.92,10.05-8.52,8.2-14.76-1.16-3.81-3.96-6.59-7.43-7.93l36.01-107.83c3.51,1.05,7.48,1.23,11.37.02,10.53-3.15,16.61-14.03,13.46-24.35-3.14-10.38-14.3-16.3-24.87-13.22-10.65,3.13-16.59,13.92-13.53,24.4,1.91,6.19,6.64,10.77,12.47,12.8l-36.01,107.89c-2.06-.7-4.43-.67-6.73.03-5.79,1.67-9.41,7.25-8.66,12.85l-90.29,14.5c-.05-.42-.21-.93-.33-1.3-2.49-8.13-11.1-12.7-19.32-10.29-8.26,2.26-12.93,10.89-10.61,18.94,1.27,3.95,3.96,7,7.21,8.91l-21.47,62.19c-.76-.12-1.57-.01-2.34.22-2.08.49-3.63,2.13-4.22,4.18l-205.82-41.91c.49-2.17.28-4.47-.41-6.84-2.51-8.01-11.31-12.55-19.43-10.31-8.27,2.33-12.86,10.85-10.25,19,2.25,8.1,10.93,12.61,19.08,10.25m225.41,37.4c1.61-.93,2.94-2.37,3.5-4.18l24.54,13.39,1.21,81.85c-1.04.06-1.84.17-2.82.25l-26.43-91.31Zm37.48,92.88l46.08-89.9c8.05-3.55,17.14-7.89,26.49-12.3l34.55,12.9-103.44,91.91c-1.01-.88-2.32-2.04-3.67-2.62m58.1-102.54c1.81-.66,3.28-1.83,3.92-3.52l9.13,3.28c-8.5,4.07-16.76,7.83-24.28,11.47l6.16-12.06c1.47.96,3.32,1.14,5.07.83m15.78-.27c34.93-16.39,74.53-34.98,92.6-43.42.38.96.91,1.82,1.61,2.64l-60.03,53.39-34.18-12.61Zm95-40.05c.08.19.31.29.46.49l-41.24,59.61-18.87-6.89,59.65-53.21Zm-2.89-4.4c-18.16,8.55-58.04,27.34-93.47,43.87l-10.14-3.68c.21-.92.23-2.1.01-2.97l103.55-37.29.05.07Zm-113.9,43.37l-6.92,13.36c-11.96,5.54-22.21,10.27-29.24,13.87-.11-.02-.03-.48-.21-.51l35.35-27.84c.43.3.69.58,1.02,1.11m-39.78,36.03c3.28-.77,5.13-4.15,4.19-7.51.02-.12-.02-.24-.23-.4,5.91-2.72,15.84-7.39,28.08-13.11l-45.31,88.48c-1.92-.79-3.97-1.25-6.13-1.37l-1.26-81.25,13.04,7.01c-.59,1.32-.69,2.62-.3,4.23.95,3.36,4.48,5.02,7.93,3.91m7.86,106.93c-2.1,2.39-2.84,5.72-1.94,8.96.49,2.09,1.63,3.59,3.02,4.66l-14.51,18.42c-1.91-1.27-4.09-1.99-6.54-1.44l-5.38-41.04c.77-.24,1.42-.48,2.14-.49,2.63-.87,4.91-2.16,6.74-4l16.47,14.93Zm90.17-76.85c2.56,8.5-2.38,17.55-11.17,20.16-7.8,2.05-16.04-1.44-19.42-8.65l9.21-3.96c1.51,2.51,4.49,3.83,7.39,2.87,3.37-.99,5.14-4.27,4.26-7.62-.4-1.26-1.2-2.22-2.08-3.07l5.64-8.23c2.96,1.8,5,5.1,6.18,8.5m-31.58,9.21c-2.65-8.64,2.26-17.57,11.05-20.18,4.77-1.36,9.58-.45,13.47,1.96l-5.76,8.22c-1.45-.72-3.16-1-4.87-.56-3.3.88-5.1,4.39-4.08,7.64-.1.23-.04.23.02.25l-9.44,4.28c-.06-.73-.35-1.13-.39-1.62m25.13-19.29c-4.18-2.47-9.29-3.43-14.39-1.88-9.28,2.63-14.56,12.35-11.8,21.35.06.73.33,1.25.57,1.65l-72.71,31.83c-.28-.53-.61-1.06-1.16-1.38l103.92-92.55,19.18,7.18-23.6,33.81Zm84.79,98.02c-2.36-3.59-6.7-5.14-11.19-3.97-.59.26-1.22.39-1.83.77l-14.6-23.79c1.63-1.04,3.04-2.58,3.67-4.5l42.55,13.5c-.41,1.71-.47,3.48.12,5.37.14.61.43,1.02.69,1.66l-19.42,10.96Zm31.28-24.82c-1.79-.53-3.89-.64-5.81,0-3.08,1.04-5.46,3.26-6.5,5.83l-42.53-13.62c.41-1.71.47-3.48-.12-5.37-.08-.6-.41-1.14-.74-1.67l70.42-41.47c1.3,1.99,3.14,3.25,5.26,4.31l-19.97,51.99Zm14.07-68.88l-104.88-38.93,40.99-59.18c2.79,2.06,6.35,2.89,9.92,2.16l57.86,91.95c-1.63,1.04-2.97,2.49-3.89,3.99m-182.13-69.52c-1.61,1.65-2.38,4.02-1.67,6.27.16.15.22.51.29.76l-35.59,28.16c-1.53-1.69-3.96-2.31-6.26-1.62-1.53.46-2.71,1.34-3.38,2.42l-13.65-7.23-1.16-80.82c1.15.01,2.52-.18,3.66-.53,2.17-.66,4.15-1.58,5.73-3.04l52.04,55.63Zm-68.76-53.44c1.84.9,4.06,1.43,6.29,1.49l1.21,80.19-24.45-13.28c.06-.71.08-1.53-.21-2.29-.67-2.14-2.36-3.95-4.34-4.4l21.5-61.71Zm-31.05,66.57l-45.66,10.46s-.12-.01-.1-.13c-1.95-6.38-8.71-9.98-15.18-8.19-6.53,2.01-10.06,8.57-8.35,14.91,2.04,6.51,8.93,10.13,15.44,8.11,5.97-1.64,9.53-7.58,8.37-13.59l47.06-10.83c-.1.93.1,1.55.29,2.18.91,3.23,4.19,4.96,7.5,4.32l26.47,91.44c-3.59,1.19-6.46,3.46-8.31,6.13l-234.92-139.96c1.51-1.76,2.61-3.97,3.25-6.24l204.14,41.4Z" style="fill: #795ea7; stroke-width: 0px;"/>
  <path d="m246.83,332.76c9.3-2.75,14.67-12.28,11.87-21.41-.82-3.04-2.44-5.56-4.53-7.57l64.17-69.83c1.61,1.22,3.82,1.75,5.62,1.11,3.38-1,5.42-4.41,4.33-7.68-1.02-3.3-4.51-5.19-7.89-4.14-3.23.84-5.23,4.38-4.14,7.64.27.88.79,1.74,1.42,2.38l-64.34,69.74c-4.48-3.59-10.39-5.1-16.38-3.34-.13.04-.39.17-.62.08l-4.55-12.4c2.88-1.25,4.25-4.35,3.54-7.32-1.01-3.25-4.58-5.09-8.01-4.16-3.18.96-5.1,4.33-4.21,7.63,1.01,3.31,4.46,5.11,7.65,4.16l4.65,12.53c-8.42,3.2-12.99,12.32-10.33,20.89,2.69,9.1,12.68,14.43,21.74,11.7m-9.69-32.06c5.47-1.61,11.31-.29,15.44,3.17l-6.94,7.36c-1.38-1.12-3.24-1.53-5.39-1.06l-3.49-9.37c.25-.02.27-.14.39-.11m-1.41.47l3.48,9.42c-2.64,1.3-4.26,4.42-3.31,7.36,1.02,3.26,4.45,5.13,7.77,4.13,3.31-.94,5.34-4.35,4.32-7.67-.32-.94-.91-1.76-1.4-2.42l6.83-7.44c1.98,1.87,3.5,4.32,4.38,6.96,2.4,8.71-2.4,17.72-11.18,20.21-8.66,2.57-18-2.35-20.66-10.92-2.27-8.04,2.08-16.53,9.75-19.63" style="fill: #795ea7; stroke-width: 0px;"/>
  <path d="m421.66,133.16c-9.34,2.63-14.66,12.22-11.93,21.4.87,2.69,2.35,5.08,4.16,6.92l-27.86,27.53c-1.54-1.27-3.7-1.74-5.8-1.14-3.05.87-5.02,3.93-4.49,6.82l-11.47,3.05c-1.07-2.97-4.52-4.73-7.64-3.87-3.32,1-5.35,4.41-4.23,7.75.96,3.3,4.34,5.11,7.71,4.17.39-.17.64-.25.85-.4l12.32,20.44c-2,1.46-3.07,4.19-2.43,6.79,1.08,3.26,4.57,5.15,7.94,4.21,3.32-1,5.19-4.5,4.22-7.75-.89-3.29-4.5-5.18-7.82-4.19-.27.2-.6.32-.91.39l-12.2-20.43c1.86-1.36,2.81-3.7,2.44-6.13l11.55-2.8c1.14,2.92,4.47,4.71,7.65,3.75,3.43-.93,5.35-4.41,4.32-7.61-.26-.94-.69-1.65-1.25-2.28l27.85-27.46c4.46,4,10.76,5.74,16.95,3.91,9.35-2.69,14.69-12.34,11.93-21.4-2.78-9.25-12.56-14.42-21.87-11.67m9.69,32.01c-5.85,1.65-11.8.03-15.95-3.68l7.15-7.15c1.63,1.4,3.84,1.94,5.89,1.32,3.38-.99,5.3-4.48,4.29-7.79-1.01-3.26-4.53-5.03-7.88-4.2-3.27,1.07-5.18,4.5-4.29,7.79.27.88.76,1.55,1.18,2.27l-7.12,6.98c-1.7-1.76-2.91-3.92-3.8-6.51-2.56-8.44,2.42-17.42,11.09-19.99,8.73-2.55,18.02,2.23,20.55,10.85,2.59,8.63-2.39,17.61-11.11,20.11" style="fill: #795ea7; stroke-width: 0px;"/>
  <path d="m564.33,43.75c-17.64,5.14-29.45,20.85-30.31,38l-56.76-1.87c-.17-1.52-.45-3.1-.87-4.54-1.78-5.89-5.66-10.5-10.61-13.44l30.49-43.38c1.51.72,3.16.99,4.88.51,3.31-1.01,5.1-4.4,4.15-7.64-.96-3.31-4.45-5.18-7.77-4.18-3.24.9-5.18,4.44-4.32,7.61.45,1.26,1.2,2.22,2.08,3.08l-30.39,43.51c-5.43-2.97-11.91-3.67-18.2-1.91-12.71,3.56-19.92,16.76-16.08,29.1,3.7,12.43,17.07,19.55,29.56,15.89,10.76-3.11,17.59-13.04,17.02-23.6l56.81,1.99c-.16,4.14.37,8.5,1.76,12.77,6.54,22.05,30.3,34.68,52.71,28.19,22.56-6.65,35.46-29.84,28.73-51.86-6.67-22.01-30.42-34.7-52.89-28.21m-89.01,31.89c.43,1.38.69,2.72.75,4.1l-13.31-.4c-.15-.91-.19-1.69-.47-2.56-.62-2.07-1.77-3.8-3.33-5l6.18-8.91c4.68,2.72,8.46,7.2,10.18,12.77m-15.37,27.73c-11.99,3.62-24.7-3.16-28.32-14.98-3.49-11.92,3.3-24.41,15.37-27.79,5.88-1.83,12.09-.93,17.15,1.68l-6.13,8.98c-2.42-1.47-5.29-1.99-8.1-1.15-5.36,1.55-8.39,6.94-6.81,12.25,1.66,5.2,7.16,8.07,12.45,6.5,4.07-1.18,6.71-4.61,7.13-8.46l13.42.47c.59,10.07-5.93,19.59-16.18,22.49m128.32,19.29c-21.91,6.4-44.99-5.94-51.41-27.32-1.35-4.14-1.85-8.32-1.75-12.47l20.58.7c-.07,1.83.27,3.79.8,5.6,3.13,10.44,14.28,16.43,24.81,13.21,10.69-3.06,16.72-14.01,13.58-24.33-3.2-10.38-14.24-16.3-25-13.18-8.14,2.29-13.75,9.64-14.2,17.64l-20.52-.69c.78-16.75,12.21-31.99,29.58-36.99,21.8-6.41,44.94,5.94,51.41,27.38,6.39,21.48-5.93,44.13-27.88,50.45" style="fill: #795ea7; stroke-width: 0px;"/>
</svg>